# xmcd
#
# Track frame offsets: 
#        182
#        9435
#        20905
#        27480
#        34180
#        44012
#        49247
#        57750
#        65197
#        74185
#        96320
#        108050
#        121085
#
# Disc length: 1737 seconds
#
# Revision: 0
# Processed by: cddbd v1.4PL0 Copyright (c) Steve Scherf et al.
# Submitted via: ExactAudioCopy v0.90b3
#
DISCID=bf06c70d
DTITLE=Loren Mazza Cane - Moonyean
DYEAR=1994
DGENRE=Blues
TTITLE0=Moonyean 01
TTITLE1=Moonyean 02
TTITLE2=Moonyean 03
TTITLE3=Moonyean 04
TTITLE4=Moonyean 05
TTITLE5=Moonyean 06
TTITLE6=Moonyean 07
TTITLE7=Moonyean 08
TTITLE8=Moonyean 09
TTITLE9=Moonyean 10
TTITLE10=Moonyean 11
TTITLE11=Moonyean 12
TTITLE12=Moonyean 13
EXTD=
EXTT0=
EXTT1=
EXTT2=
EXTT3=
EXTT4=
EXTT5=
EXTT6=
EXTT7=
EXTT8=
EXTT9=
EXTT10=
EXTT11=
EXTT12=
PLAYORDER=
